REM DIRINDEX 1\8,1\2\11,1\3\12,1\3\14,1\5\15,1\5\16,1\6\17,1\6\18,1\4\19,1\4\20,1\4\21,1\4\22,1\7\23,1\7\24,1\7\25,1\2\9\26,1\2\9\27,1\2\10\28,1\2\10\29,1\2\10\30,1\2\10\31,1\2\10\32,1\3\13\33,1\3\13\34,1\3\13\35
REM DIRNAME folder01,folder02,folder03,folder04,folder05,folder06,folder07,folder08,folder09,folder10,folder11,folder12,folder13,folder14,folder15,folder16,folder17,folder18,folder19,folder20,folder21,folder22,folder23,folder24,folder25,folder26,folder27,folder28,folder29,folder30,folder31,folder32,folder33,folder34,folder35
TITLE ""
FILE "156 156_—á•¶UNIT6_SET4.mp3" MP3
  TRACK 01 AUDIO
    TITLE "22:cjc123_4153"
    INDEX 01 00:00:00
  TRACK 02 AUDIO
    TITLE "0:"
    INDEX 01 00:02:51
  TRACK 03 AUDIO
    TITLE "19:cjc123_4154"
    INDEX 01 00:03:37
  TRACK 04 AUDIO
    TITLE "0:"
    INDEX 01 00:08:09
  TRACK 05 AUDIO
    TITLE "20:cjc123_4155"
    INDEX 01 00:08:46
  TRACK 06 AUDIO
    TITLE "0:"
    INDEX 01 00:12:50
  TRACK 07 AUDIO
    TITLE "21:cjc123_4156"
    INDEX 01 00:13:02
  TRACK 08 AUDIO
    TITLE "0:"
    INDEX 01 00:17:51
  TRACK 09 AUDIO
    TITLE "19:cjc123_4157"
    INDEX 01 00:18:23
  TRACK 10 AUDIO
    TITLE "0:"
    INDEX 01 00:22:58
  TRACK 11 AUDIO
    TITLE "20:cjc123_4158"
    INDEX 01 00:23:16
  TRACK 12 AUDIO
    TITLE "0:"
    INDEX 01 00:27:18
  TRACK 13 AUDIO
    TITLE "21:cjc123_4159"
    INDEX 01 00:27:55
  TRACK 14 AUDIO
    TITLE "0:"
    INDEX 01 00:32:17
  TRACK 15 AUDIO
    TITLE "19:cjc123_4160"
    INDEX 01 00:32:62
  TRACK 16 AUDIO
    TITLE "0:"
    INDEX 01 00:37:22
  TRACK 17 AUDIO
    TITLE "20:cjc123_4161"
    INDEX 01 00:37:61
  TRACK 18 AUDIO
    TITLE "0:"
    INDEX 01 00:42:10
  TRACK 19 AUDIO
    TITLE "21:cjc123_4162"
    INDEX 01 00:42:53
  TRACK 20 AUDIO
    TITLE "0:"
    INDEX 01 00:47:11
  TRACK 21 AUDIO
    TITLE "19:cjc123_4163"
    INDEX 01 00:47:56
  TRACK 22 AUDIO
    TITLE "0:"
    INDEX 01 00:52:14
  TRACK 23 AUDIO
    TITLE "20:cjc123_4164"
    INDEX 01 00:52:45
  TRACK 24 AUDIO
    TITLE "0:"
    INDEX 01 00:56:63
  TRACK 25 AUDIO
    TITLE "21:cjc123_4165"
    INDEX 01 00:57:19
  TRACK 26 AUDIO
    TITLE "0:"
    INDEX 01 01:01:52
  TRACK 27 AUDIO
    TITLE "19:cjc123_4166"
    INDEX 01 01:02:26
  TRACK 28 AUDIO
    TITLE "0:"
    INDEX 01 01:06:51
  TRACK 29 AUDIO
    TITLE "20:cjc123_4167"
    INDEX 01 01:07:04
  TRACK 30 AUDIO
    TITLE "0:"
    INDEX 01 01:10:63
  TRACK 31 AUDIO
    TITLE "21:cjc123_4168"
    INDEX 01 01:11:15
  TRACK 32 AUDIO
    TITLE "0:"
    INDEX 01 01:15:39
  TRACK 33 AUDIO
    TITLE "19:cjc123_4169"
    INDEX 01 01:16:12
  TRACK 34 AUDIO
    TITLE "0:"
    INDEX 01 01:21:39
  TRACK 35 AUDIO
    TITLE "20:cjc123_4170"
    INDEX 01 01:21:74
  TRACK 36 AUDIO
    TITLE "0:"
    INDEX 01 01:27:14
  TRACK 37 AUDIO
    TITLE "21:cjc123_4171"
    INDEX 01 01:27:42
  TRACK 38 AUDIO
    TITLE "0:"
    INDEX 01 01:32:66
  TRACK 39 AUDIO
    TITLE "19:cjc123_4172"
    INDEX 01 01:33:48
  TRACK 40 AUDIO
    TITLE "0:"
    INDEX 01 01:38:67
  TRACK 41 AUDIO
    TITLE "20:cjc123_4173"
    INDEX 01 01:39:33
  TRACK 42 AUDIO
    TITLE "0:"
    INDEX 01 01:45:24
  TRACK 43 AUDIO
    TITLE "21:cjc123_4174"
    INDEX 01 01:45:51
  TRACK 44 AUDIO
    TITLE "0:"
    INDEX 01 01:50:70
  TRACK 45 AUDIO
    TITLE "19:cjc123_4175"
    INDEX 01 01:51:48
  TRACK 46 AUDIO
    TITLE "0:"
    INDEX 01 01:55:09
  TRACK 47 AUDIO
    TITLE "20:cjc123_4176"
    INDEX 01 01:55:44
  TRACK 48 AUDIO
    TITLE "0:"
    INDEX 01 02:00:08
  TRACK 49 AUDIO
    TITLE "21:cjc123_4177"
    INDEX 01 02:00:35
  TRACK 50 AUDIO
    TITLE "0:"
    INDEX 01 02:03:73
  TRACK 51 AUDIO
    TITLE "19:cjc123_4178"
    INDEX 01 02:04:51
  TRACK 52 AUDIO
    TITLE "0:"
    INDEX 01 02:08:54
  TRACK 53 AUDIO
    TITLE "20:cjc123_4179"
    INDEX 01 02:09:19
  TRACK 54 AUDIO
    TITLE "0:"
    INDEX 01 02:14:57
  TRACK 55 AUDIO
    TITLE "21:cjc123_4180"
    INDEX 01 02:15:09
  TRACK 56 AUDIO
    TITLE "0:"
    INDEX 01 02:19:15
  TRACK 57 AUDIO
    TITLE "19:cjc123_4181"
    INDEX 01 02:19:72
  TRACK 58 AUDIO
    TITLE "0:"
    INDEX 01 02:25:55
  TRACK 59 AUDIO
    TITLE "20:cjc123_4182"
    INDEX 01 02:26:21
  TRACK 60 AUDIO
    TITLE "0:"
    INDEX 01 02:31:73
  TRACK 61 AUDIO
    TITLE "21:cjc123_4183"
    INDEX 01 02:32:29
  TRACK 62 AUDIO
    TITLE "0:"
    INDEX 01 02:38:20
  TRACK 63 AUDIO
    TITLE "19:cjc123_4184"
    INDEX 01 02:38:67
  TRACK 64 AUDIO
    TITLE "0:"
    INDEX 01 02:45:24
  TRACK 65 AUDIO
    TITLE "20:cjc123_4185"
    INDEX 01 02:45:65
  TRACK 66 AUDIO
    TITLE "0:"
    INDEX 01 02:52:36
  TRACK 67 AUDIO
    TITLE "21:cjc123_4186"
    INDEX 01 02:52:61
  TRACK 68 AUDIO
    TITLE "0:"
    INDEX 01 02:59:18
  TRACK 69 AUDIO
    TITLE "19:cjc123_4187"
    INDEX 01 03:00:00
  TRACK 70 AUDIO
    TITLE "0:"
    INDEX 01 03:04:22
  TRACK 71 AUDIO
    TITLE "20:cjc123_4188"
    INDEX 01 03:04:57
  TRACK 72 AUDIO
    TITLE "0:"
    INDEX 01 03:08:62
  TRACK 73 AUDIO
    TITLE "21:cjc123_4189"
    INDEX 01 03:09:19
  TRACK 74 AUDIO
    TITLE "0:"
    INDEX 01 03:13:40
  TRACK 75 AUDIO
    TITLE "19:cjc123_4190"
    INDEX 01 03:14:14
  TRACK 76 AUDIO
    TITLE "0:"
    INDEX 01 03:18:04
  TRACK 77 AUDIO
    TITLE "20:cjc123_4191"
    INDEX 01 03:18:35
  TRACK 78 AUDIO
    TITLE "0:"
    INDEX 01 03:23:52
  TRACK 79 AUDIO
    TITLE "21:cjc123_4192"
    INDEX 01 03:24:05
  TRACK 80 AUDIO
    TITLE "0:"
    INDEX 01 03:27:66
  TRACK 81 AUDIO
    TITLE "19:cjc123_4193"
    INDEX 01 03:28:42
  TRACK 82 AUDIO
    TITLE "0:"
    INDEX 01 03:34:70
  TRACK 83 AUDIO
    TITLE "20:cjc123_4194"
    INDEX 01 03:35:34
  TRACK 84 AUDIO
    TITLE "0:"
    INDEX 01 03:41:17
  TRACK 85 AUDIO
    TITLE "21:cjc123_4195"
    INDEX 01 03:41:44
  TRACK 86 AUDIO
    TITLE "0:"
    INDEX 01 03:47:74
  TRACK 87 AUDIO
    TITLE "19:cjc123_4196"
    INDEX 01 03:48:58
  TRACK 88 AUDIO
    TITLE "0:"
    INDEX 01 03:54:35
  TRACK 89 AUDIO
    TITLE "20:cjc123_4197"
    INDEX 01 03:54:57
  TRACK 90 AUDIO
    TITLE "0:"
    INDEX 01 03:59:70
  TRACK 91 AUDIO
    TITLE "21:cjc123_4198"
    INDEX 01 04:00:30
  TRACK 92 AUDIO
    TITLE "0:"
    INDEX 01 04:06:05
